# xmcd
#
# Track frame offsets:
#	150
#	2768
#	4750
#	6751
#	8777
#	10815
#	12795
#	14814
#	16782
#	18634
#	20407
#	22199
#	24409
#	26218
#	28061
#	29906
#	31737
#	33567
#	37277
#	39110
#	40944
#	42760
#	44612
#	46421
#	48237
#	50068
#	51858
#	53704
#	55522
#	59162
#	61034
#	62850
#	66307
#	68025
#	69774
#	71508
#	73188
#	74901
#	76570
#	78301
#	80001
#	81726
#	83465
#	85173
#	86580
#	87703
#	89063
#	90331
#	91662
#	93297
#	94648
#	96139
#	97885
#	99636
#	101368
#	103094
#	104723
#	106365
#	108002
#	109647
#	111289
#	112959
#	114615
#	116293
#	117947
#	119354
#	120740
#	122666
#	124022
#	126249
#	127639
#	129437
#	131250
#	133081
#	134887
#	136675
#	137826
#	139271
#	140570
#	142000
#	143603
#	145184
#	146815
#	148086
#	149426
#	150775
#	152186
#	153499
#	154709
#	155940
#	157133
#	158386
#	159616
#	161528
#	163310
#	165089
#	166624
#	168161
#	169485
#
# Disc length: 2278 seconds
#
# Revision: 1
# Processed by: cddbd v1.5.2PL0 Copyright (c) Steve Scherf et al.
# Submitted via: audiograbber 1.83.01
#
DISCID=5508e463
DTITLE=Larry McCabe - Bad to the Bone (101 Blues Rhythms)
DYEAR=1999
DGENRE=Instructional
TTITLE0=Tuning
TTITLE1=Number 001
TTITLE2=Number 002
TTITLE3=Number 003
TTITLE4=Number 004
TTITLE5=Number 005
TTITLE6=Number 006
TTITLE7=Number 007
TTITLE8=Number 008
TTITLE9=Number 009
TTITLE10=Number 010
TTITLE11=Number 011
TTITLE12=Number 012
TTITLE13=Number 013
TTITLE14=Number 014
TTITLE15=Number 015
TTITLE16=Number 016
TTITLE17=Number 017, 018
TTITLE18=Number 019
TTITLE19=Number 020
TTITLE20=Number 021
TTITLE21=Number 022
TTITLE22=Number 023
TTITLE23=Number 024
TTITLE24=Number 025
TTITLE25=Number 026
TTITLE26=Number 027
TTITLE27=Number 028
TTITLE28=Number 029, 030
TTITLE29=Number 031
TTITLE30=Number 032
TTITLE31=Number 033, 034
TTITLE32=Number 035
TTITLE33=Number 036
TTITLE34=Number 037
TTITLE35=Number 038
TTITLE36=Number 039
TTITLE37=Number 040
TTITLE38=Number 041
TTITLE39=Number 042
TTITLE40=Number 043
TTITLE41=Number 044
TTITLE42=Number 045
TTITLE43=Number 046
TTITLE44=Number 047
TTITLE45=Number 048
TTITLE46=Number 049
TTITLE47=Number 050
TTITLE48=Number 051
TTITLE49=Number 052
TTITLE50=Number 053
TTITLE51=Number 054
TTITLE52=Number 055
TTITLE53=Number 056
TTITLE54=Number 057
TTITLE55=Number 058
TTITLE56=Number 059
TTITLE57=Number 060
TTITLE58=Number 061
TTITLE59=Number 062
TTITLE60=Number 063
TTITLE61=Number 064
TTITLE62=Number 065
TTITLE63=Number 066
TTITLE64=Number 067
TTITLE65=Number 068
TTITLE66=Number 069
TTITLE67=Number 070
TTITLE68=Number 071
TTITLE69=Number 072
TTITLE70=Number 073
TTITLE71=Number 074
TTITLE72=Number 075
TTITLE73=Number 076
TTITLE74=Number 077
TTITLE75=Number 078
TTITLE76=Number 079
TTITLE77=Number 080
TTITLE78=Number 081
TTITLE79=Number 082
TTITLE80=Number 083
TTITLE81=Number 084
TTITLE82=Number 085
TTITLE83=Number 086
TTITLE84=Number 087
TTITLE85=Number 088
TTITLE86=Number 089
TTITLE87=Number 090
TTITLE88=Number 091
TTITLE89=Number 092
TTITLE90=Number 093
TTITLE91=Number 094
TTITLE92=Number 095
TTITLE93=Number 096
TTITLE94=Number 097
TTITLE95=Number 098
TTITLE96=Number 099
TTITLE97=Number 100
TTITLE98=Number 101
EXTD=Came with a like-titled Mel Bay book.
EXTT0=
EXTT1=
EXTT2=
EXTT3=
EXTT4=
EXTT5=
EXTT6=
EXTT7=
EXTT8=
EXTT9=
EXTT10=
EXTT11=
EXTT12=
EXTT13=
EXTT14=
EXTT15=
EXTT16=
EXTT17=
EXTT18=
EXTT19=
EXTT20=
EXTT21=
EXTT22=
EXTT23=
EXTT24=
EXTT25=
EXTT26=
EXTT27=
EXTT28=
EXTT29=
EXTT30=
EXTT31=
EXTT32=
EXTT33=
EXTT34=
EXTT35=
EXTT36=
EXTT37=
EXTT38=
EXTT39=
EXTT40=
EXTT41=
EXTT42=
EXTT43=
EXTT44=
EXTT45=
EXTT46=
EXTT47=
EXTT48=
EXTT49=
EXTT50=
EXTT51=
EXTT52=
EXTT53=
EXTT54=
EXTT55=
EXTT56=
EXTT57=
EXTT58=
EXTT59=
EXTT60=
EXTT61=
EXTT62=
EXTT63=
EXTT64=
EXTT65=
EXTT66=
EXTT67=
EXTT68=
EXTT69=
EXTT70=
EXTT71=
EXTT72=
EXTT73=
EXTT74=
EXTT75=
EXTT76=
EXTT77=
EXTT78=
EXTT79=
EXTT80=
EXTT81=
EXTT82=
EXTT83=
EXTT84=
EXTT85=
EXTT86=
EXTT87=
EXTT88=
EXTT89=
EXTT90=
EXTT91=
EXTT92=
EXTT93=
EXTT94=
EXTT95=
EXTT96=
EXTT97=
EXTT98=
PLAYORDER=
